<?xml version="1.0" encoding="utf-8"?>
<!-- Generator: Adobe Illustrator 16.0.0, SVG Export Plug-In . SVG Version: 6.00 Build 0)  -->
<!DOCTYPE svg PUBLIC "-//W3C//DTD SVG 1.1//EN" "http://www.w3.org/Graphics/SVG/1.1/DTD/svg11.dtd">
<svg version="1.1" id="Layer_1" xmlns="http://www.w3.org/2000/svg" xmlns:xlink="http://www.w3.org/1999/xlink" x="0px" y="0px"
	 width="60px" height="60px" viewBox="-4.216 -15.414 60 60" enable-background="new -4.216 -15.414 60 60" xml:space="preserve">
<g>
	<g>
		<g>
			<path fill="#FFFFFF" d="M37.292,10.741l-9.482-5.71c-0.139-0.081-0.311-0.071-0.434,0.028c-0.125,0.098-0.176,0.262-0.129,0.413
				l3.297,10.569c0.051,0.153,0.188,0.263,0.354,0.269c0.004,0,0.008,0,0.014,0c0.154,0,0.297-0.097,0.354-0.242l1.588-4.035
				l4.297-0.585c0.16-0.021,0.289-0.143,0.32-0.301C37.501,10.986,37.433,10.824,37.292,10.741z"/>
			<path fill="#FFFFFF" d="M51.189,26.097h-0.328c-0.232-9.6-6.016-18.287-14.771-22.248h8.617v0.267
				c0,0.211,0.17,0.381,0.381,0.381h3.736c0.211,0,0.381-0.17,0.381-0.381V0.38c0-0.211-0.17-0.381-0.381-0.381h-3.736
				c-0.211,0-0.381,0.17-0.381,0.381v0.267H28.034V0.304c0-0.168-0.139-0.305-0.307-0.305h-3.889c-0.168,0-0.305,0.137-0.305,0.305
				v0.343H6.865V0.38c0-0.211-0.172-0.381-0.383-0.381H2.746c-0.21,0-0.381,0.17-0.381,0.381v3.736c0,0.211,0.171,0.381,0.381,0.381
				h3.735c0.21,0,0.381-0.17,0.381-0.381V3.85h8.617C6.723,7.811,0.942,16.498,0.707,26.097H0.38c-0.211,0-0.381,0.17-0.381,0.381
				v2.312c0,0.211,0.17,0.381,0.381,0.381h2.312c0.211,0,0.382-0.17,0.382-0.381v-2.312c0-0.211-0.171-0.381-0.382-0.381H2.384
				c0.138-5.229,2.06-10.322,5.418-14.348c3.328-3.99,7.935-6.794,12.973-7.897h2.761v0.341c0,0.168,0.136,0.305,0.305,0.305h3.89
				c0.168,0,0.307-0.137,0.307-0.305V3.851l2.779,0.006c5.029,1.105,9.629,3.907,12.953,7.893c3.355,4.026,5.277,9.118,5.418,14.349
				h-0.311c-0.211,0-0.381,0.17-0.381,0.381v2.312c0,0.211,0.17,0.381,0.381,0.381h2.312c0.211,0,0.381-0.17,0.381-0.381v-2.312
				C51.57,26.267,51.398,26.097,51.189,26.097z M2.007,28.104h-0.94v-0.94h0.94V28.104z M50.501,28.104h-0.938v-0.94h0.938V28.104z"
				/>
		</g>
	</g>
</g>
</svg>
