<?xml version="1.0" encoding="utf-8"?>
<!-- Generator: Adobe Illustrator 16.0.0, SVG Export Plug-In . SVG Version: 6.00 Build 0)  -->
<!DOCTYPE svg PUBLIC "-//W3C//DTD SVG 1.1//EN" "http://www.w3.org/Graphics/SVG/1.1/DTD/svg11.dtd">
<svg version="1.1" id="Capa_1" xmlns="http://www.w3.org/2000/svg" xmlns:xlink="http://www.w3.org/1999/xlink" x="0px" y="0px"
	 width="338.168px" height="338.168px" viewBox="0 0 338.168 338.168" enable-background="new 0 0 338.168 338.168"
	 xml:space="preserve">
<g>
	<g>
		<g>
			<path d="M200.772,105.601l-62.829,15.61c-0.899,0.224-1.566,0.979-1.677,1.898c-0.108,0.917,0.36,1.809,1.178,2.241
				l57.339,30.062c0.837,0.438,1.861,0.302,2.556-0.343c0.018-0.019,0.039-0.04,0.058-0.058c0.645-0.644,0.833-1.622,0.467-2.464
				l-10.124-23.249l15.346-20.185c0.573-0.753,0.608-1.785,0.088-2.575C202.654,105.748,201.691,105.372,200.772,105.601z"/>
			<path d="M321.735,111.634l-1.35,1.35c-40.667-38.715-100.493-50.739-153.092-30.901l35.634-35.634l1.104,1.104
				c0.871,0.871,2.282,0.871,3.153,0l15.45-15.45c0.871-0.872,0.87-2.282,0-3.153l-15.45-15.45c-0.871-0.871-2.282-0.872-3.153,0
				l-15.45,15.45c-0.87,0.871-0.87,2.282,0,3.153l1.104,1.104l-68.938,68.938l-1.419-1.419c-0.696-0.696-1.826-0.696-2.522,0
				l-16.081,16.081c-0.696,0.696-0.696,1.826,0,2.522l1.419,1.419l-68.938,68.938l-1.104-1.104c-0.871-0.87-2.282-0.87-3.153,0
				l-15.45,15.45c-0.871,0.872-0.871,2.283,0,3.154l15.45,15.45c0.871,0.871,2.282,0.871,3.153,0l15.45-15.45
				c0.871-0.871,0.871-2.283,0-3.154l-1.104-1.103l35.633-35.634c-19.836,52.599-7.813,112.426,30.901,153.091l-1.349,1.351
				c-0.871,0.87-0.871,2.281,0,3.152l9.564,9.563c0.871,0.872,2.282,0.871,3.153,0l9.564-9.563c0.871-0.871,0.872-2.281,0-3.152
				l-9.564-9.564c-0.871-0.871-2.282-0.871-3.153,0l-1.277,1.276c-21.052-22.191-34.162-51.2-36.924-81.734
				c-2.739-30.261,4.714-60.905,20.986-86.298l11.412-11.418l1.411,1.411c0.696,0.696,1.826,0.696,2.522,0l16.081-16.081
				c0.696-0.696,0.696-1.826,0-2.522l-1.416-1.416l11.521-11.47c25.373-16.228,55.978-23.659,86.2-20.924
				c30.535,2.763,59.542,15.871,81.735,36.924l-1.276,1.277c-0.871,0.871-0.871,2.282,0,3.153l9.563,9.564
				c0.871,0.871,2.282,0.871,3.153,0l9.563-9.564c0.871-0.871,0.871-2.282,0-3.153l-9.563-9.564
				C324.019,110.765,322.606,110.764,321.735,111.634z M126.663,323.313l-3.889,3.888l-3.888-3.888l3.888-3.889L126.663,323.313z
				 M327.2,122.775l-3.889,3.889l-3.889-3.889l3.889-3.888L327.2,122.775z"/>
		</g>
	</g>
</g>
</svg>
