<?xml version="1.0" encoding="utf-8"?>
<!-- Generator: Adobe Illustrator 16.0.0, SVG Export Plug-In . SVG Version: 6.00 Build 0)  -->
<!DOCTYPE svg PUBLIC "-//W3C//DTD SVG 1.1//EN" "http://www.w3.org/Graphics/SVG/1.1/DTD/svg11.dtd">
<svg version="1.1" xmlns="http://www.w3.org/2000/svg" xmlns:xlink="http://www.w3.org/1999/xlink" x="0px" y="0px" width="201px"
	 height="38px" viewBox="0 0 201 38" enable-background="new 0 0 201 38" xml:space="preserve">
<g id="Layer_2">
</g>
<g id="Layer_1">
	<g>
		<g enable-background="new    ">
			<path fill="#FFFFFF" d="M1.5,22.5v-21h2.25L9,14.484V1.5h3v21H9.867L4.5,8.531V22.5H1.5z"/>
			<path fill="#FFFFFF" d="M17.965,22.5v-6.75l-4.5-14.25h3l3,10.5l3-10.5h3l-4.5,14.25v6.75H17.965z"/>
			<path fill="#FFFFFF" d="M26.93,22.5v-21h3v18.75h5.25v2.25H26.93z"/>
			<path fill="#FFFFFF" d="M36.574,22.5v-21h8.25v2.25h-5.25v6.75h3.75v2.25h-3.75v7.5h5.25v2.25H36.574z"/>
			<path fill="#FFFFFF" d="M49.805,22.5l-4.5-21h3l2.215,11.25L51.293,18l0.797-5.25L54.305,1.5h3l-4.5,21H49.805z"/>
			<path fill="#FFFFFF" d="M58.945,22.5v-21h8.25v2.25h-5.25v6.75h3.75v2.25h-3.75v7.5h5.25v2.25H58.945z"/>
			<path fill="#FFFFFF" d="M72.598,22.5l4.5-21h3l4.5,21h-3l-1.125-5.25h-3.75l-1.125,5.25H72.598z M77.098,15h3l-1.5-9L77.098,15z"
				/>
			<path fill="#FFFFFF" d="M86.285,22.5v-21h3v18.75h5.25v2.25H86.285z"/>
			<path fill="#FFFFFF" d="M95.93,22.5v-21h8.25v2.25h-5.25v6.75h3.75v2.25h-3.75v7.5h5.25v2.25H95.93z"/>
			<path fill="#FFFFFF" d="M104.52,22.5v-2.25c0.648,0,1.154-0.035,1.518-0.105s0.662-0.221,0.896-0.451s0.391-0.531,0.469-0.902
				s0.117-0.885,0.117-1.541V1.5h3v15.75c0,0.953-0.063,1.74-0.188,2.361s-0.354,1.158-0.686,1.611s-0.793,0.779-1.383,0.979
				s-1.338,0.299-2.244,0.299H104.52z"/>
			<path fill="#FFFFFF" d="M112.172,22.5l4.5-21h3l4.5,21h-3l-1.125-5.25h-3.75l-1.125,5.25H112.172z M116.672,15h3l-1.5-9
				L116.672,15z"/>
			<path fill="#FFFFFF" d="M125.859,22.5v-21h2.25l5.25,12.984V1.5h3v21h-2.133l-5.367-13.969V22.5H125.859z"/>
			<path fill="#FFFFFF" d="M139.359,22.5v-21h4.652c2.195,0,3.744,0.449,4.646,1.348s1.354,2.449,1.354,4.652v8.25
				c0,2.305-0.459,4.006-1.377,5.104s-2.467,1.646-4.646,1.646H139.359z M142.359,20.25h1.652c0.492,0,0.914-0.045,1.266-0.135
				s0.637-0.254,0.855-0.492s0.391-0.465,0.516-0.68s0.213-0.549,0.264-1.002s0.08-0.826,0.088-1.119s0.012-0.748,0.012-1.365
				c0-0.203,0-0.355,0-0.457V8.25c0-0.383-0.002-0.688-0.006-0.914s-0.016-0.494-0.035-0.803s-0.049-0.553-0.088-0.732
				s-0.094-0.381-0.164-0.604s-0.158-0.396-0.264-0.521s-0.234-0.256-0.387-0.393s-0.328-0.238-0.527-0.305
				s-0.432-0.121-0.697-0.164s-0.563-0.064-0.891-0.064h-1.594V20.25z"/>
			<path fill="#FFFFFF" d="M152.637,22.5v-21h3.75c2.234,0,3.918,0.434,5.051,1.301s1.699,2.309,1.699,4.324
				c0,1.25-0.223,2.297-0.668,3.141s-1.098,1.422-1.957,1.734l3.375,10.5h-2.977l-3.023-9.75h-2.25v9.75H152.637z M155.637,10.5
				h0.75c1.25,0,2.188-0.264,2.813-0.791s0.938-1.389,0.938-2.584s-0.313-2.057-0.938-2.584s-1.563-0.791-2.813-0.791h-0.75V10.5z"
				/>
			<path fill="#FFFFFF" d="M165.762,22.5v-21h3v21H165.762z"/>
			<path fill="#FFFFFF" d="M171.973,22.5v-21h2.25l5.25,12.984V1.5h3v21h-2.133l-5.367-13.969V22.5H171.973z"/>
			<path fill="#FFFFFF" d="M190.887,22.711c-1.055,0-1.959-0.16-2.713-0.48s-1.354-0.789-1.799-1.406s-0.77-1.342-0.973-2.174
				s-0.305-1.799-0.305-2.9V8.133c0-1.102,0.102-2.063,0.305-2.883s0.527-1.533,0.973-2.139s1.045-1.061,1.799-1.365
				s1.658-0.457,2.713-0.457c2.047,0,3.523,0.586,4.43,1.758s1.359,2.867,1.359,5.086v7.617c0,1.086-0.104,2.045-0.311,2.877
				s-0.533,1.559-0.979,2.18s-1.045,1.094-1.799,1.418S191.934,22.711,190.887,22.711z M188.701,19.301
				c0.402,0.633,1.131,0.949,2.186,0.949s1.783-0.316,2.186-0.949s0.604-1.566,0.604-2.801V7.383c0-1.219-0.199-2.129-0.598-2.73
				s-1.129-0.902-2.191-0.902s-1.793,0.301-2.191,0.902s-0.598,1.512-0.598,2.73V16.5C188.098,17.734,188.299,18.668,188.701,19.301
				z"/>
		</g>
		<g enable-background="new    ">
			<path fill="#FFFFFF" d="M8.42,34.323H7.6l-1.44-4.78c-0.068-0.212-0.145-0.479-0.229-0.801s-0.128-0.516-0.132-0.581
				c-0.072,0.43-0.186,0.9-0.342,1.411L4.06,34.323H3.24L1.34,27.185h0.879l1.128,4.409c0.156,0.618,0.27,1.179,0.342,1.68
				c0.088-0.596,0.218-1.179,0.391-1.748l1.279-4.341h0.879l1.343,4.38c0.156,0.505,0.288,1.074,0.396,1.709
				c0.062-0.462,0.179-1.025,0.352-1.689l1.123-4.399h0.879L8.42,34.323z"/>
			<path fill="#FFFFFF" d="M18.627,34.323h-3.979v-7.139h3.979v0.737h-3.149v2.3h2.959v0.732h-2.959v2.627h3.149V34.323z"/>
			<path fill="#FFFFFF" d="M23.41,27.185h2.017c0.947,0,1.633,0.142,2.056,0.425s0.635,0.73,0.635,1.343
				c0,0.423-0.118,0.772-0.354,1.047c-0.235,0.275-0.58,0.454-1.032,0.535v0.049c1.084,0.186,1.626,0.755,1.626,1.709
				c0,0.638-0.216,1.136-0.646,1.494c-0.432,0.358-1.035,0.537-1.81,0.537h-2.49V27.185z M24.24,30.241h1.367
				c0.586,0,1.008-0.092,1.265-0.275c0.257-0.185,0.386-0.494,0.386-0.931c0-0.4-0.144-0.689-0.43-0.866
				c-0.286-0.178-0.742-0.267-1.367-0.267H24.24V30.241z M24.24,30.944v2.671h1.489c0.576,0,1.01-0.111,1.301-0.335
				c0.292-0.223,0.438-0.571,0.438-1.047c0-0.442-0.148-0.769-0.447-0.977c-0.297-0.208-0.751-0.313-1.359-0.313H24.24z"/>
			<path fill="#FFFFFF" d="M38.857,32.473c0-0.423,0.113-0.798,0.339-1.123c0.227-0.325,0.633-0.654,1.219-0.986
				c-0.276-0.31-0.465-0.544-0.564-0.703c-0.099-0.159-0.178-0.325-0.236-0.498s-0.088-0.352-0.088-0.537
				c0-0.488,0.159-0.869,0.479-1.143s0.764-0.41,1.333-0.41c0.527,0,0.942,0.136,1.245,0.407c0.303,0.272,0.454,0.65,0.454,1.136
				c0,0.349-0.11,0.67-0.332,0.964c-0.222,0.295-0.588,0.594-1.099,0.896l1.987,1.909c0.183-0.202,0.328-0.438,0.437-0.71
				c0.109-0.272,0.201-0.569,0.276-0.892h0.82c-0.222,0.931-0.555,1.638-1.001,2.119l1.46,1.421h-1.118l-0.903-0.869
				c-0.384,0.345-0.774,0.593-1.172,0.742s-0.84,0.225-1.328,0.225c-0.7,0-1.243-0.173-1.628-0.518
				C39.049,33.559,38.857,33.081,38.857,32.473z M41.083,33.693c0.784,0,1.436-0.251,1.953-0.752l-2.134-2.07
				c-0.361,0.222-0.617,0.404-0.767,0.55c-0.149,0.145-0.261,0.3-0.332,0.466s-0.107,0.354-0.107,0.566
				c0,0.381,0.126,0.683,0.378,0.905C40.328,33.582,40.664,33.693,41.083,33.693z M40.327,28.605c0,0.225,0.059,0.438,0.176,0.642
				c0.117,0.204,0.317,0.449,0.601,0.735c0.42-0.244,0.712-0.47,0.876-0.677c0.165-0.206,0.247-0.444,0.247-0.715
				c0-0.251-0.084-0.455-0.251-0.613c-0.168-0.157-0.392-0.236-0.672-0.236c-0.29,0-0.525,0.078-0.705,0.234
				C40.417,28.132,40.327,28.342,40.327,28.605z"/>
			<path fill="#FFFFFF" d="M59.124,30.583h2.427v3.472c-0.378,0.12-0.762,0.212-1.152,0.273s-0.843,0.093-1.357,0.093
				c-1.081,0-1.922-0.321-2.524-0.965c-0.603-0.643-0.903-1.543-0.903-2.702c0-0.742,0.149-1.393,0.446-1.95
				c0.299-0.559,0.728-0.985,1.287-1.279c0.56-0.295,1.216-0.442,1.968-0.442c0.762,0,1.472,0.14,2.129,0.42l-0.322,0.732
				c-0.645-0.273-1.265-0.41-1.86-0.41c-0.869,0-1.548,0.259-2.036,0.776s-0.732,1.235-0.732,2.153c0,0.964,0.235,1.694,0.706,2.192
				c0.47,0.498,1.161,0.747,2.072,0.747c0.495,0,0.979-0.057,1.45-0.171v-2.197h-1.597V30.583z"/>
			<path fill="#FFFFFF" d="M67.294,31.354v2.969h-0.83v-7.139h1.958c0.876,0,1.522,0.168,1.941,0.503
				c0.418,0.335,0.627,0.84,0.627,1.514c0,0.944-0.479,1.582-1.436,1.914l1.938,3.208h-0.981l-1.729-2.969H67.294z M67.294,30.642
				h1.138c0.586,0,1.016-0.116,1.289-0.35c0.273-0.232,0.41-0.581,0.41-1.047c0-0.472-0.139-0.813-0.418-1.021
				c-0.277-0.208-0.725-0.313-1.34-0.313h-1.079V30.642z"/>
			<path fill="#FFFFFF" d="M80.333,34.323l-0.889-2.271h-2.861l-0.879,2.271h-0.84l2.822-7.168h0.698l2.808,7.168H80.333z
				 M79.186,31.306l-0.83-2.212c-0.107-0.28-0.218-0.623-0.332-1.03c-0.071,0.313-0.174,0.656-0.308,1.03l-0.84,2.212H79.186z"/>
			<path fill="#FFFFFF" d="M89.9,29.265c0,0.723-0.246,1.278-0.74,1.668c-0.492,0.389-1.198,0.583-2.116,0.583h-0.84v2.808h-0.83
				v-7.139h1.851C89.008,27.185,89.9,27.878,89.9,29.265z M86.204,30.803h0.747c0.735,0,1.268-0.119,1.597-0.356
				s0.493-0.618,0.493-1.143c0-0.472-0.154-0.823-0.464-1.055s-0.791-0.347-1.445-0.347h-0.928V30.803z"/>
			<path fill="#FFFFFF" d="M100.014,34.323h-0.83v-3.359h-3.76v3.359h-0.83v-7.139h0.83v3.037h3.76v-3.037h0.83V34.323z"/>
			<path fill="#FFFFFF" d="M105.172,34.323v-7.139h0.83v7.139H105.172z"/>
			<path fill="#FFFFFF" d="M114.217,27.824c-0.784,0-1.403,0.261-1.858,0.784c-0.453,0.521-0.681,1.237-0.681,2.146
				c0,0.935,0.219,1.656,0.657,2.165c0.438,0.51,1.062,0.765,1.872,0.765c0.498,0,1.066-0.09,1.704-0.269v0.728
				c-0.495,0.186-1.105,0.278-1.831,0.278c-1.052,0-1.862-0.319-2.435-0.957c-0.57-0.638-0.856-1.545-0.856-2.72
				c0-0.735,0.138-1.38,0.413-1.934c0.274-0.554,0.672-0.979,1.191-1.279c0.519-0.3,1.13-0.449,1.833-0.449
				c0.749,0,1.403,0.137,1.963,0.41l-0.352,0.713C115.298,27.951,114.757,27.824,114.217,27.824z"/>
			<path fill="#FFFFFF" d="M133.165,30.686c0,1.179-0.32,2.079-0.959,2.702c-0.641,0.624-1.561,0.936-2.762,0.936h-1.978v-7.139
				h2.188c1.11,0,1.973,0.308,2.588,0.923S133.165,29.582,133.165,30.686z M132.286,30.715c0-0.931-0.233-1.633-0.701-2.104
				c-0.467-0.472-1.161-0.708-2.082-0.708h-1.206v5.703h1.011c0.989,0,1.733-0.243,2.231-0.729
				C132.037,32.389,132.286,31.669,132.286,30.715z"/>
			<path fill="#FFFFFF" d="M141.936,34.323h-3.979v-7.139h3.979v0.737h-3.149v2.3h2.959v0.732h-2.959v2.627h3.149V34.323z"/>
			<path fill="#FFFFFF" d="M150.747,32.424c0,0.628-0.228,1.118-0.684,1.47s-1.074,0.527-1.855,0.527
				c-0.847,0-1.497-0.109-1.953-0.327v-0.801c0.293,0.124,0.612,0.222,0.957,0.293s0.687,0.107,1.025,0.107
				c0.554,0,0.97-0.104,1.25-0.315c0.28-0.209,0.42-0.502,0.42-0.876c0-0.247-0.05-0.45-0.148-0.608
				c-0.1-0.157-0.266-0.303-0.498-0.437c-0.233-0.134-0.587-0.285-1.063-0.454c-0.664-0.237-1.139-0.52-1.424-0.845
				c-0.284-0.325-0.427-0.75-0.427-1.274c0-0.55,0.207-0.988,0.62-1.313s0.96-0.488,1.641-0.488c0.71,0,1.362,0.13,1.958,0.391
				l-0.259,0.723c-0.589-0.247-1.162-0.371-1.719-0.371c-0.439,0-0.783,0.095-1.03,0.283s-0.371,0.451-0.371,0.786
				c0,0.247,0.046,0.45,0.137,0.607c0.091,0.158,0.245,0.303,0.462,0.436c0.216,0.131,0.547,0.277,0.993,0.437
				c0.749,0.267,1.264,0.554,1.546,0.859C150.606,31.538,150.747,31.936,150.747,32.424z"/>
			<path fill="#FFFFFF" d="M155.407,34.323v-7.139h0.83v7.139H155.407z"/>
			<path fill="#FFFFFF" d="M164.535,30.583h2.427v3.472c-0.378,0.12-0.762,0.212-1.152,0.273s-0.843,0.093-1.357,0.093
				c-1.081,0-1.922-0.321-2.524-0.965c-0.603-0.643-0.903-1.543-0.903-2.702c0-0.742,0.149-1.393,0.446-1.95
				c0.299-0.559,0.728-0.985,1.287-1.279c0.56-0.295,1.216-0.442,1.968-0.442c0.762,0,1.472,0.14,2.129,0.42l-0.322,0.732
				c-0.645-0.273-1.265-0.41-1.86-0.41c-0.869,0-1.548,0.259-2.036,0.776s-0.732,1.235-0.732,2.153c0,0.964,0.235,1.694,0.706,2.192
				c0.47,0.498,1.161,0.747,2.072,0.747c0.495,0,0.979-0.057,1.45-0.171v-2.197h-1.597V30.583z"/>
			<path fill="#FFFFFF" d="M177.451,34.323h-0.947l-3.901-5.991h-0.039c0.052,0.703,0.078,1.348,0.078,1.934v4.058h-0.767v-7.139
				h0.938l3.892,5.967h0.039c-0.007-0.088-0.021-0.37-0.044-0.848c-0.022-0.477-0.031-0.817-0.024-1.022v-4.097h0.776V34.323z"/>
			<path fill="#FFFFFF" d="M186.593,34.323h-3.979v-7.139h3.979v0.737h-3.149v2.3h2.959v0.732h-2.959v2.627h3.149V34.323z"/>
			<path fill="#FFFFFF" d="M192.206,31.354v2.969h-0.83v-7.139h1.958c0.876,0,1.522,0.168,1.941,0.503
				c0.418,0.335,0.627,0.84,0.627,1.514c0,0.944-0.479,1.582-1.436,1.914l1.938,3.208h-0.981l-1.729-2.969H192.206z M192.206,30.642
				h1.138c0.586,0,1.016-0.116,1.289-0.35c0.273-0.232,0.41-0.581,0.41-1.047c0-0.472-0.139-0.813-0.418-1.021
				c-0.277-0.208-0.725-0.313-1.34-0.313h-1.079V30.642z"/>
		</g>
	</g>
</g>
</svg>
