<?xml version="1.0" encoding="utf-8"?>
<!-- Generator: Adobe Illustrator 16.0.0, SVG Export Plug-In . SVG Version: 6.00 Build 0)  -->
<!DOCTYPE svg PUBLIC "-//W3C//DTD SVG 1.1//EN" "http://www.w3.org/Graphics/SVG/1.1/DTD/svg11.dtd">
<svg version="1.1" id="Layer_1" xmlns="http://www.w3.org/2000/svg" xmlns:xlink="http://www.w3.org/1999/xlink" x="0px" y="0px"
	 width="60px" height="60px" viewBox="0 0 60 60" enable-background="new 0 0 60 60" xml:space="preserve">
<g>
	<g>
		<g>
			<path fill="#FFFFFF" d="M44.791,7.689H6.842c-1.103,0-1.998,0.895-1.998,1.998V40.94c0,1.103,0.895,1.997,1.998,1.997h28.357
				l-2.193-2.545h-5.242v-3.196h2.746l-0.02-0.023c-0.701-0.8-1.165-1.626-1.387-2.422H9.638V15.875h32.356v18.875h-4.341
				c0.659,0.7,1.349,1.409,1.927,1.983c0.406-0.381,0.885-0.801,1.422-1.222c1.826-1.435,3.604-2.312,5.282-2.607
				c0.169-0.03,0.337-0.052,0.505-0.07V9.687C46.789,8.583,45.895,7.689,44.791,7.689z M18.776,37.196h5.093v3.196h-5.093V37.196z
				 M9.788,37.196h5.093v3.196H9.788V37.196z M14.881,13.43H9.788v-3.196h5.093V13.43z M23.869,13.43h-5.093v-3.196h5.093V13.43z
				 M32.857,13.43h-5.094v-3.196h5.094V13.43z M41.846,13.43h-5.094v-3.196h5.094V13.43z"/>
			<path fill="#FFFFFF" d="M55.012,43.1c-0.497-2.674-2.199-5.146-3.169-6.382c-1.315-1.677-2.987-2.351-4.965-2.002
				c-1.413,0.249-2.948,1.019-4.563,2.287c-1.142,0.896-2.004,1.793-2.385,2.21c-0.959-0.824-3.633-3.581-4.947-5.136
				c-0.659-0.78-2.36-2.44-3.629-1.294c-1.367,1.328,0.635,3.497,0.687,3.561l8.028,9.827c-0.033,0.043-0.068,0.081-0.11,0.113
				c-0.771,0.605-3.017-0.506-3.924-1.105c-0.829-0.548-2.226-0.544-2.93,0.009c-0.282,0.222-0.438,0.523-0.44,0.849
				c-0.002,0.468,0.305,0.952,0.91,1.437c0.006,0.006,0.019,0.017,0.036,0.031c0.895,0.767,3.321,2.676,6.526,3.852
				c2.054,0.753,4.055,1.063,5.949,0.923c2.348-0.175,4.536-1.047,6.504-2.591C54.7,48.029,55.515,45.812,55.012,43.1z"/>
			<path fill="#FFFFFF" d="M23.843,18.602c-0.307-0.258-0.735-0.314-1.099-0.145c-0.363,0.17-0.596,0.534-0.596,0.935v10.887
				c0,0.401,0.232,0.766,0.596,0.936c0.139,0.064,0.288,0.097,0.436,0.097c0.238,0,0.474-0.083,0.663-0.241l6.496-5.444
				c0.233-0.196,0.369-0.485,0.369-0.791c0-0.305-0.136-0.595-0.369-0.791L23.843,18.602z"/>
		</g>
	</g>
</g>
</svg>
