<?xml version="1.0" encoding="utf-8"?>
<!-- Generator: Adobe Illustrator 16.0.0, SVG Export Plug-In . SVG Version: 6.00 Build 0)  -->
<!DOCTYPE svg PUBLIC "-//W3C//DTD SVG 1.1//EN" "http://www.w3.org/Graphics/SVG/1.1/DTD/svg11.dtd">
<svg version="1.1" id="Layer_1" xmlns="http://www.w3.org/2000/svg" xmlns:xlink="http://www.w3.org/1999/xlink" x="0px" y="0px"
	 width="60px" height="60px" viewBox="-7.718 -6.677 60 60" enable-background="new -7.718 -6.677 60 60" xml:space="preserve">
<g>
	<path fill="#FFFFFF" d="M35.241,0c-5.143,0-9.324,4.183-9.324,9.324c0,5.141,4.182,9.324,9.324,9.324
		c5.141,0,9.322-4.184,9.322-9.324C44.564,4.183,40.382,0,35.241,0z M35.241,15.44c-3.371,0-6.117-2.744-6.117-6.115
		c0-3.372,2.746-6.116,6.117-6.116c3.375,0,6.115,2.744,6.115,6.116C41.357,12.696,38.616,15.44,35.241,15.44z"/>
	<path fill="#FFFFFF" d="M38.759,9.921l-2.248-0.939c-0.076-0.284-0.238-0.522-0.465-0.698V4.768c0-0.442-0.359-0.802-0.803-0.802
		s-0.803,0.358-0.803,0.802v3.516c-0.314,0.243-0.535,0.609-0.535,1.042c0,0.737,0.596,1.336,1.336,1.336
		c0.242,0,0.461-0.082,0.652-0.194l2.248,0.935c0.102,0.043,0.207,0.062,0.311,0.062c0.312,0,0.609-0.187,0.738-0.494
		C39.361,10.561,39.171,10.091,38.759,9.921z"/>
	<path fill="#FFFFFF" d="M15.454,29.315c5.604,0,9.956-6.252,9.956-11.63c0-5.489-4.469-9.956-9.956-9.956
		c-5.49,0-9.955,4.467-9.955,9.956C5.5,23.063,9.845,29.315,15.454,29.315z M15.454,11.296c3.521,0,6.386,2.865,6.386,6.389
		c0,3.63-2.945,8.064-6.386,8.064s-6.39-4.435-6.39-8.064C9.064,14.161,11.928,11.296,15.454,11.296z"/>
	<path fill="#FFFFFF" d="M25.157,24.633c0.014,0.162,0.031,0.324,0.031,0.49c0,2.992-4.399,9.748-7.283,13.862l-1.184-5.801
		l1.403-1.406c0.067-0.065,0.067-0.176,0-0.243l-0.683-0.683c-0.27-0.27-0.636-0.422-1.018-0.422h-1.951
		c-0.381,0-0.747,0.15-1.016,0.42l-0.563,0.562c-0.063,0.063-0.101,0.151-0.101,0.244c0,0.092,0.036,0.18,0.101,0.243l1.282,1.283
		l-1.184,5.801c-2.883-4.114-7.278-10.87-7.278-13.862c0-0.166,0.019-0.328,0.028-0.49c-3.429,1.962-5.743,5.648-5.743,9.88v7.598
		c0,2.505,2.03,4.535,4.537,4.535h21.831c2.502,0,4.531-2.03,4.531-4.535v-7.598C30.9,30.281,28.589,26.594,25.157,24.633z"/>
</g>
</svg>
