<?xml version="1.0" encoding="utf-8"?>
<!-- Generator: Adobe Illustrator 16.0.0, SVG Export Plug-In . SVG Version: 6.00 Build 0)  -->
<!DOCTYPE svg PUBLIC "-//W3C//DTD SVG 1.1//EN" "http://www.w3.org/Graphics/SVG/1.1/DTD/svg11.dtd">
<svg version="1.1" xmlns="http://www.w3.org/2000/svg" xmlns:xlink="http://www.w3.org/1999/xlink" x="0px" y="0px"
	 width="217.528px" height="198.031px" viewBox="0 0 217.528 198.031" enable-background="new 0 0 217.528 198.031"
	 xml:space="preserve">
<g id="Layer_1">
</g>
<g id="Layer_2">
	<g>
		<g>
			
				<rect x="59.51" y="20.402" transform="matrix(0.7071 -0.7071 0.7071 0.7071 -17.3974 97.3094)" fill="none" stroke="#FFFFFF" stroke-width="0.5" stroke-miterlimit="10" width="98.507" height="98.507"/>
			<g>
				<polygon fill="#9C9C9C" points="106.644,48.769 114.708,44.48 114.753,44.569 141.425,94.808 131.104,94.808 114.753,64.026 
									"/>
				<polygon fill="#9D9D9D" points="103.405,78.927 103.405,94.823 101.591,94.823 101.574,94.805 94.284,81.078 85.233,64.045 
					77.125,48.789 85.18,44.486 85.233,44.575 94.284,61.645 				"/>
				<path fill="#FFFFFF" d="M114.75,44.481v50.33h-9.121V48.882c0-2.16,1.52-3.96,3.561-4.401H114.75z"/>
				<polygon fill="#FFFFFF" points="103.405,78.927 103.405,94.823 101.591,94.823 101.574,94.805 94.284,94.805 94.284,61.645 				
					"/>
				<polygon fill="#FFFFFF" points="80.824,94.805 85.233,94.805 85.233,94.823 80.788,94.823 				"/>
				<polygon fill="#FFFFFF" points="103.405,94.805 103.405,94.823 101.591,94.823 101.574,94.805 				"/>
				<path fill="#FFFFFF" d="M85.225,44.481v50.35h-9.122V48.882c0-2.16,1.521-3.96,3.561-4.401H85.225z"/>
				<path fill="#FFFFFF" d="M133.674,80.228l-3.761,6.302c0,0.02,0,0.04-0.02,0.06l-0.721,1.181c-0.84,0.96-2.06,1.58-3.44,1.58
					h-17.724v-9.122H133.674z"/>
			</g>
		</g>
		<g>
			<path fill="#FFFFFF" d="M0,181.471v-23.404h2.507l5.852,14.471v-14.471h3.343v23.404H9.325l-5.982-15.567v15.568L0,181.471
				L0,181.471z"/>
			<path fill="#FFFFFF" d="M18.35,181.471v-7.522l-5.016-15.882h3.344l3.343,11.702l3.345-11.702h3.344l-5.015,15.882v7.522H18.35z"
				/>
			<path fill="#FFFFFF" d="M28.341,181.471v-23.404h3.343v20.896h5.852v2.508H28.341z"/>
			<path fill="#FFFFFF" d="M39.09,181.471v-23.404h9.195v2.507h-5.851v7.523h4.179v2.508h-4.179v8.358h5.851v2.508H39.09z"/>
			<path fill="#FFFFFF" d="M53.836,181.471l-5.015-23.404h3.343l2.468,12.538l0.862,5.852l0.888-5.852l2.468-12.538h3.344
				l-5.016,23.404H53.836z"/>
			<path fill="#FFFFFF" d="M64.023,181.471v-23.404h9.195v2.507h-5.851v7.523h4.179v2.508h-4.179v8.358h5.851v2.508H64.023z"/>
			<path fill="#FFFFFF" d="M79.24,181.471l5.016-23.404h3.343l5.016,23.404h-3.343l-1.254-5.852h-4.18l-1.253,5.852H79.24z
				 M84.255,173.112h3.343l-1.671-10.031L84.255,173.112z"/>
			<path fill="#FFFFFF" d="M94.496,181.471v-23.404h3.343v20.896h5.852v2.508H94.496z"/>
			<path fill="#FFFFFF" d="M105.244,181.471v-23.404h9.195v2.507h-5.852v7.523h4.18v2.508h-4.18v8.358h5.852v2.508H105.244z"/>
			<path fill="#FFFFFF" d="M114.817,181.471v-2.508c0.723,0,1.287-0.039,1.692-0.117c0.404-0.079,0.738-0.246,0.998-0.503
				c0.262-0.257,0.436-0.593,0.522-1.006c0.087-0.413,0.131-0.985,0.131-1.718v-17.553h3.343v17.554c0,1.063-0.07,1.939-0.209,2.632
				c-0.14,0.692-0.394,1.29-0.764,1.796s-0.884,0.868-1.541,1.091c-0.658,0.223-1.491,0.333-2.501,0.333L114.817,181.471
				L114.817,181.471z"/>
			<path fill="#FFFFFF" d="M123.347,181.471l5.015-23.404h3.343l5.016,23.404h-3.344l-1.253-5.852h-4.18l-1.254,5.852H123.347z
				 M128.362,173.112h3.343l-1.672-10.03L128.362,173.112z"/>
			<path fill="#FFFFFF" d="M138.602,181.471v-23.404h2.506l5.852,14.471v-14.471h3.344v23.404h-2.377l-5.983-15.568v15.568H138.602z
				"/>
			<path fill="#FFFFFF" d="M153.648,181.471v-23.404h5.186c2.447,0,4.172,0.5,5.178,1.501c1.006,1.002,1.51,2.73,1.51,5.186v9.195
				c0,2.568-0.514,4.464-1.537,5.688c-1.023,1.223-2.748,1.835-5.178,1.835H153.648z M156.992,178.963h1.842
				c0.549,0,1.018-0.05,1.41-0.15c0.393-0.099,0.709-0.282,0.953-0.547c0.244-0.266,0.436-0.519,0.574-0.759
				c0.139-0.239,0.238-0.611,0.295-1.116c0.057-0.506,0.088-0.921,0.096-1.247c0.01-0.327,0.016-0.834,0.016-1.522
				c0-0.227,0-0.396,0-0.509v-7.523c0-0.427-0.004-0.766-0.008-1.019c-0.004-0.252-0.018-0.551-0.039-0.895
				s-0.055-0.616-0.098-0.816c-0.043-0.201-0.104-0.425-0.184-0.673c-0.078-0.248-0.176-0.442-0.293-0.581
				c-0.117-0.14-0.262-0.286-0.432-0.438s-0.365-0.266-0.588-0.34c-0.221-0.073-0.48-0.135-0.777-0.183s-0.627-0.071-0.992-0.071
				h-1.775V178.963L156.992,178.963z"/>
			<path fill="#FFFFFF" d="M168.445,181.471v-23.404h4.182c2.488,0,4.365,0.483,5.627,1.449c1.264,0.967,1.895,2.572,1.895,4.819
				c0,1.394-0.248,2.561-0.744,3.5c-0.496,0.941-1.225,1.585-2.182,1.934l3.762,11.702h-3.316l-3.371-10.866h-2.508v10.866H168.445z
				 M171.789,168.097h0.836c1.393,0,2.438-0.294,3.135-0.882c0.697-0.587,1.045-1.547,1.045-2.88c0-1.332-0.348-2.292-1.045-2.879
				c-0.697-0.589-1.742-0.882-3.135-0.882h-0.836V168.097z"/>
			<path fill="#FFFFFF" d="M183.074,181.471v-23.404h3.344v23.404H183.074z"/>
			<path fill="#FFFFFF" d="M189.996,181.471v-23.404h2.508l5.852,14.471v-14.471h3.342v23.404h-2.375l-5.982-15.568v15.568H189.996z
				"/>
			<path fill="#FFFFFF" d="M211.076,181.706c-1.174,0-2.184-0.179-3.023-0.536c-0.84-0.356-1.508-0.879-2.004-1.566
				s-0.857-1.495-1.084-2.423s-0.34-2.006-0.34-3.232v-8.489c0-1.228,0.113-2.299,0.34-3.214c0.227-0.914,0.588-1.708,1.084-2.383
				c0.496-0.674,1.164-1.183,2.004-1.521c0.84-0.34,1.85-0.51,3.023-0.51c2.281,0,3.928,0.653,4.938,1.959s1.516,3.195,1.516,5.669
				v8.489c0,1.21-0.117,2.28-0.346,3.206c-0.232,0.928-0.596,1.737-1.092,2.43s-1.164,1.219-2.004,1.58
				C213.246,181.524,212.244,181.706,211.076,181.706z M208.64,177.905c0.447,0.705,1.262,1.058,2.436,1.058
				c1.176,0,1.988-0.353,2.436-1.058c0.449-0.705,0.674-1.745,0.674-3.121v-10.161c0-1.358-0.223-2.373-0.668-3.044
				c-0.443-0.67-1.258-1.006-2.441-1.006s-1.998,0.336-2.441,1.006c-0.445,0.671-0.666,1.686-0.666,3.044v10.161
				C207.968,176.16,208.193,177.2,208.64,177.905z"/>
		</g>
		<g>
			<path fill="#FFFFFF" d="M8.957,195.763H8.042l-1.606-5.326c-0.075-0.236-0.161-0.533-0.255-0.893
				c-0.095-0.358-0.144-0.576-0.147-0.648c-0.08,0.479-0.207,1.003-0.381,1.574l-1.557,5.293H3.182l-2.117-7.956h0.979l1.258,4.915
				c0.174,0.688,0.301,1.313,0.381,1.872c0.098-0.664,0.243-1.313,0.436-1.948l1.426-4.839h0.979l1.496,4.883
				c0.174,0.562,0.321,1.196,0.44,1.904c0.069-0.516,0.2-1.143,0.392-1.883l1.252-4.904h0.979L8.957,195.763z"/>
			<path fill="#FFFFFF" d="M20.332,195.763h-4.435v-7.956h4.435v0.823h-3.51v2.562h3.298v0.816h-3.298v2.929h3.51V195.763z"/>
			<path fill="#FFFFFF" d="M25.662,187.807h2.247c1.056,0,1.819,0.159,2.291,0.475s0.707,0.814,0.707,1.495
				c0,0.473-0.132,0.862-0.395,1.168c-0.263,0.307-0.646,0.505-1.15,0.596v0.054c1.208,0.207,1.812,0.843,1.812,1.905
				c0,0.711-0.24,1.267-0.721,1.665c-0.48,0.399-1.152,0.599-2.017,0.599h-2.775L25.662,187.807L25.662,187.807z M26.586,191.213
				h1.523c0.653,0,1.123-0.102,1.41-0.307s0.43-0.551,0.43-1.037c0-0.445-0.159-0.768-0.479-0.966
				c-0.319-0.198-0.827-0.296-1.523-0.296h-1.36V191.213z M26.586,191.996v2.979h1.659c0.643,0,1.125-0.125,1.451-0.373
				c0.324-0.25,0.486-0.639,0.486-1.169c0-0.493-0.166-0.855-0.498-1.088c-0.331-0.231-0.837-0.349-1.515-0.349H26.586
				L26.586,191.996z"/>
			<path fill="#FFFFFF" d="M42.432,193.701c0-0.473,0.126-0.889,0.378-1.251c0.252-0.364,0.704-0.729,1.357-1.1
				c-0.308-0.345-0.518-0.606-0.628-0.784c-0.11-0.179-0.199-0.363-0.264-0.555c-0.066-0.193-0.099-0.392-0.099-0.599
				c0-0.545,0.178-0.969,0.533-1.273c0.355-0.306,0.851-0.457,1.486-0.457c0.588,0,1.05,0.15,1.388,0.454s0.506,0.725,0.506,1.266
				c0,0.388-0.123,0.747-0.37,1.074s-0.654,0.661-1.225,0.998l2.215,2.129c0.203-0.226,0.366-0.489,0.488-0.792
				c0.121-0.302,0.225-0.633,0.308-0.992h0.914c-0.247,1.037-0.619,1.824-1.116,2.361l1.628,1.582h-1.246l-1.008-0.969
				c-0.428,0.386-0.863,0.661-1.306,0.828s-0.936,0.25-1.48,0.25c-0.779,0-1.385-0.191-1.814-0.577
				C42.647,194.911,42.432,194.379,42.432,193.701z M44.914,195.062c0.874,0,1.6-0.279,2.177-0.838l-2.378-2.308
				c-0.403,0.247-0.687,0.451-0.854,0.612c-0.167,0.161-0.29,0.334-0.37,0.52s-0.12,0.396-0.12,0.632
				c0,0.424,0.141,0.76,0.422,1.009C44.071,194.938,44.446,195.062,44.914,195.062z M44.07,189.392c0,0.25,0.065,0.488,0.195,0.715
				c0.131,0.229,0.354,0.5,0.67,0.819c0.468-0.271,0.793-0.523,0.977-0.754c0.184-0.229,0.275-0.496,0.275-0.798
				c0-0.277-0.094-0.507-0.281-0.682c-0.187-0.176-0.436-0.265-0.748-0.265c-0.322,0-0.585,0.087-0.786,0.261
				S44.07,189.098,44.07,189.392z"/>
			<path fill="#FFFFFF" d="M64.575,191.595h2.704v3.87c-0.42,0.135-0.849,0.235-1.284,0.305c-0.436,0.068-0.939,0.103-1.514,0.103
				c-1.204,0-2.142-0.356-2.813-1.073c-0.671-0.718-1.007-1.722-1.007-3.012c0-0.828,0.166-1.552,0.498-2.176
				c0.332-0.622,0.81-1.097,1.435-1.425c0.624-0.329,1.354-0.492,2.193-0.492c0.849,0,1.64,0.155,2.372,0.468l-0.359,0.816
				c-0.718-0.305-1.409-0.458-2.073-0.458c-0.969,0-1.725,0.288-2.27,0.864c-0.544,0.578-0.816,1.379-0.816,2.401
				c0,1.073,0.263,1.888,0.787,2.442c0.523,0.555,1.294,0.833,2.311,0.833c0.551,0,1.089-0.063,1.616-0.191v-2.449h-1.779V191.595
				L64.575,191.595z"/>
			<path fill="#FFFFFF" d="M73.681,192.454v3.309h-0.926v-7.956h2.183c0.977,0,1.696,0.188,2.164,0.562
				c0.466,0.374,0.698,0.936,0.698,1.688c0,1.051-0.533,1.763-1.6,2.133l2.16,3.574h-1.095l-1.927-3.309H73.681z M73.681,191.66
				h1.268c0.652,0,1.132-0.129,1.437-0.39c0.305-0.26,0.457-0.648,0.457-1.168c0-0.525-0.155-0.904-0.466-1.136
				c-0.31-0.233-0.808-0.349-1.493-0.349H73.68L73.681,191.66L73.681,191.66z"/>
			<path fill="#FFFFFF" d="M88.213,195.763l-0.991-2.529h-3.188l-0.979,2.529h-0.937l3.146-7.989h0.778l3.13,7.989H88.213z
				 M86.934,192.399l-0.925-2.464c-0.12-0.313-0.243-0.695-0.37-1.148c-0.08,0.348-0.194,0.731-0.343,1.148l-0.936,2.464H86.934z"/>
			<path fill="#FFFFFF" d="M98.875,190.125c0,0.806-0.274,1.426-0.824,1.858c-0.549,0.434-1.336,0.65-2.359,0.65h-0.937v3.128
				h-0.924v-7.955h2.062C97.881,187.807,98.875,188.58,98.875,190.125z M94.755,191.841h0.833c0.82,0,1.413-0.134,1.78-0.399
				c0.366-0.264,0.549-0.688,0.549-1.273c0-0.525-0.171-0.917-0.517-1.175c-0.345-0.257-0.881-0.386-1.61-0.386h-1.035V191.841
				L94.755,191.841z"/>
			<path fill="#FFFFFF" d="M110.147,195.763h-0.924v-3.744h-4.191v3.744h-0.925v-7.956h0.925v3.385h4.191v-3.385h0.924V195.763z"/>
			<path fill="#FFFFFF" d="M115.896,195.763v-7.956h0.926v7.956H115.896z"/>
			<path fill="#FFFFFF" d="M125.978,188.521c-0.876,0-1.565,0.291-2.073,0.873c-0.505,0.582-0.757,1.38-0.757,2.393
				c0,1.04,0.244,1.845,0.731,2.412s1.184,0.853,2.088,0.853c0.556,0,1.188-0.1,1.898-0.301v0.813
				c-0.551,0.207-1.232,0.31-2.04,0.31c-1.174,0-2.077-0.355-2.715-1.067c-0.636-0.71-0.953-1.721-0.953-3.029
				c0-0.821,0.151-1.539,0.459-2.155c0.308-0.617,0.749-1.093,1.328-1.426c0.579-0.334,1.261-0.501,2.044-0.501
				c0.834,0,1.563,0.151,2.188,0.457l-0.392,0.795C127.181,188.662,126.578,188.521,125.978,188.521z"/>
			<path fill="#FFFFFF" d="M145.981,191.71c0,1.313-0.357,2.316-1.07,3.012c-0.713,0.694-1.738,1.041-3.078,1.041h-2.203v-7.956
				h2.439c1.236,0,2.197,0.344,2.883,1.029S145.981,190.479,145.981,191.71z M145.001,191.742c0-1.038-0.26-1.82-0.781-2.347
				s-1.293-0.788-2.32-0.788h-1.344v6.355h1.125c1.105,0,1.934-0.271,2.488-0.813S145.001,192.805,145.001,191.742z"/>
			<path fill="#FFFFFF" d="M155.757,195.763h-4.436v-7.956h4.436v0.823h-3.51v2.562h3.297v0.816h-3.297v2.929h3.51V195.763z"/>
			<path fill="#FFFFFF" d="M165.576,193.647c0,0.699-0.254,1.245-0.762,1.637c-0.51,0.393-1.197,0.588-2.068,0.588
				c-0.945,0-1.67-0.121-2.178-0.363v-0.893c0.326,0.138,0.682,0.246,1.068,0.326c0.383,0.079,0.764,0.12,1.143,0.12
				c0.615,0,1.08-0.117,1.393-0.352c0.311-0.233,0.467-0.56,0.467-0.977c0-0.276-0.057-0.502-0.166-0.678
				c-0.109-0.175-0.295-0.338-0.555-0.487c-0.26-0.148-0.654-0.317-1.184-0.507c-0.74-0.264-1.27-0.578-1.586-0.939
				c-0.318-0.364-0.477-0.838-0.477-1.422c0-0.612,0.23-1.1,0.691-1.463s1.07-0.544,1.83-0.544c0.789,0,1.516,0.145,2.182,0.436
				l-0.289,0.805c-0.658-0.276-1.295-0.413-1.914-0.413c-0.49,0-0.875,0.104-1.15,0.315c-0.275,0.21-0.414,0.502-0.414,0.875
				c0,0.277,0.053,0.503,0.152,0.679c0.102,0.175,0.275,0.337,0.516,0.484c0.238,0.146,0.609,0.309,1.105,0.487
				c0.836,0.298,1.41,0.616,1.725,0.958C165.419,192.659,165.576,193.103,165.576,193.647z"/>
			<path fill="#FFFFFF" d="M170.769,195.763v-7.956h0.926v7.956H170.769z"/>
			<path fill="#FFFFFF" d="M180.943,191.595h2.705v3.87c-0.422,0.135-0.85,0.235-1.285,0.305c-0.436,0.068-0.941,0.103-1.514,0.103
				c-1.205,0-2.141-0.356-2.814-1.073c-0.67-0.718-1.006-1.722-1.006-3.012c0-0.828,0.166-1.552,0.496-2.176
				c0.334-0.622,0.813-1.097,1.436-1.425c0.625-0.329,1.355-0.492,2.195-0.492c0.848,0,1.637,0.155,2.371,0.468l-0.357,0.816
				c-0.719-0.305-1.412-0.458-2.076-0.458c-0.969,0-1.723,0.288-2.268,0.864c-0.545,0.578-0.816,1.379-0.816,2.401
				c0,1.073,0.262,1.888,0.787,2.442c0.523,0.555,1.295,0.833,2.309,0.833c0.553,0,1.09-0.063,1.617-0.191v-2.449h-1.779V191.595
				L180.943,191.595z"/>
			<path fill="#FFFFFF" d="M195.339,195.763h-1.057l-4.35-6.676h-0.043c0.059,0.783,0.088,1.502,0.088,2.154v4.521h-0.854v-7.956
				h1.045l4.334,6.65h0.045c-0.006-0.099-0.023-0.411-0.049-0.943s-0.033-0.911-0.027-1.141v-4.566h0.867V195.763L195.339,195.763z"
				/>
			<path fill="#FFFFFF" d="M205.527,195.763h-4.436v-7.956h4.436v0.823h-3.51v2.562h3.297v0.816h-3.297v2.929h3.51V195.763z"/>
			<path fill="#FFFFFF" d="M211.783,192.454v3.309h-0.926v-7.956h2.182c0.979,0,1.697,0.188,2.164,0.562s0.699,0.936,0.699,1.688
				c0,1.051-0.535,1.763-1.602,2.133l2.162,3.574h-1.096l-1.926-3.309H211.783z M211.783,191.66h1.266
				c0.654,0,1.133-0.129,1.438-0.39c0.305-0.26,0.457-0.648,0.457-1.168c0-0.525-0.154-0.904-0.465-1.136
				c-0.309-0.233-0.809-0.349-1.494-0.349h-1.201V191.66L211.783,191.66z"/>
		</g>
	</g>
</g>
</svg>
