<?xml version="1.0" encoding="utf-8"?>
<!-- Generator: Adobe Illustrator 16.0.0, SVG Export Plug-In . SVG Version: 6.00 Build 0)  -->
<!DOCTYPE svg PUBLIC "-//W3C//DTD SVG 1.1//EN" "http://www.w3.org/Graphics/SVG/1.1/DTD/svg11.dtd">
<svg version="1.1" id="Layer_1" xmlns="http://www.w3.org/2000/svg" xmlns:xlink="http://www.w3.org/1999/xlink" x="0px" y="0px"
	 width="60px" height="60px" viewBox="-5.934 -11.083 60 60" enable-background="new -5.934 -11.083 60 60" xml:space="preserve">
<g>
	<g id="Layer_19_1_">
		<g>
			<path fill="#FFFFFF" d="M48.132,33.856V0H0v33.855h19.646v2.18H9.375v1.797H38.13v-1.797H28.083v-2.18H48.132z M3.521,28.872
				V3.866H44.61v25.002H3.521V28.872z"/>
			<path fill="#FFFFFF" d="M11.189,14.024h25.68V7.118h-25.68V14.024z M11.7,7.677h24.66v5.788H11.7V7.677z"/>
			<path fill="#FFFFFF" d="M11.165,21.36h7.897v-6.231h-7.897V21.36z M11.674,15.688h6.877v5.111h-6.877V15.688z"/>
			<path fill="#FFFFFF" d="M20.048,21.36h7.896v-6.231h-7.896V21.36z M20.559,15.688h6.875v5.111h-6.875V15.688z"/>
			<path fill="#FFFFFF" d="M36.891,15.127h-7.896v6.23h7.896V15.127z M36.38,20.799h-6.877v-5.111h6.877V20.799z"/>
			<rect x="11.165" y="22.778" fill="#FFFFFF" width="7.119" height="0.541"/>
			<rect x="11.165" y="23.776" fill="#FFFFFF" width="7.897" height="0.541"/>
			<rect x="11.165" y="24.807" fill="#FFFFFF" width="6.434" height="0.543"/>
			<rect x="11.165" y="25.928" fill="#FFFFFF" width="7.198" height="0.543"/>
			<rect x="10.703" y="26.981" fill="#FFFFFF" width="4.614" height="0.541"/>
			<rect x="20.048" y="22.778" fill="#FFFFFF" width="7.119" height="0.541"/>
			<rect x="20.048" y="23.776" fill="#FFFFFF" width="7.897" height="0.541"/>
			<rect x="20.048" y="24.807" fill="#FFFFFF" width="6.433" height="0.543"/>
			<rect x="20.048" y="25.928" fill="#FFFFFF" width="7.199" height="0.543"/>
			<rect x="19.584" y="26.981" fill="#FFFFFF" width="4.614" height="0.541"/>
			<rect x="29.074" y="22.733" fill="#FFFFFF" width="7.117" height="0.543"/>
			<rect x="29.074" y="23.731" fill="#FFFFFF" width="7.896" height="0.543"/>
			<rect x="29.074" y="24.764" fill="#FFFFFF" width="6.432" height="0.543"/>
			<rect x="29.074" y="25.885" fill="#FFFFFF" width="7.196" height="0.541"/>
			<rect x="28.61" y="26.936" fill="#FFFFFF" width="4.613" height="0.543"/>
			<path fill="#FFFFFF" d="M22.96,4.852H11.162v1.575H22.96V4.852z M22.451,5.87H11.671V5.414h10.779V5.87z"/>
		</g>
	</g>
</g>
</svg>
